<svg width="512" height="512" viewBox="0 0 512 512" fill="none" xmlns="http://www.w3.org/2000/svg">
  <rect width="512" height="512" rx="124" fill="#08111C"/>
  <circle cx="256" cy="256" r="196" fill="url(#paint0_radial)" fill-opacity="0.24"/>
  <circle cx="256" cy="256" r="182" stroke="url(#paint1_linear)" stroke-opacity="0.34" stroke-width="6"/>
  <path d="M86 228C124 194 167 182 211 190C252 198 286 225 326 229C355 232 389 224 422 205" stroke="#84E3DA" stroke-width="20" stroke-linecap="round"/>
  <path d="M72 286C113 258 160 247 207 255C252 263 288 289 333 294C364 297 391 290 413 275" stroke="#4CA8FF" stroke-width="16" stroke-linecap="round"/>
  <path d="M168 168L214 204M344 168L298 204M168 344L214 308M344 344L298 308" stroke="#E8FBFF" stroke-width="16" stroke-linecap="round"/>
  <rect x="198" y="206" width="116" height="76" rx="34" fill="#E8FBFF"/>
  <circle cx="256" cy="244" r="18" fill="#16324A"/>
  <circle cx="150" cy="150" r="38" stroke="#E8FBFF" stroke-width="16"/>
  <circle cx="362" cy="150" r="38" stroke="#E8FBFF" stroke-width="16"/>
  <circle cx="150" cy="362" r="38" stroke="#E8FBFF" stroke-width="16"/>
  <circle cx="362" cy="362" r="38" stroke="#E8FBFF" stroke-width="16"/>
  <path d="M299 128C325 114 354 114 379 128M299 384C325 398 354 398 379 384" stroke="#84E3DA" stroke-width="12" stroke-linecap="round"/>
  <defs>
    <radialGradient id="paint0_radial" cx="0" cy="0" r="1" gradientUnits="userSpaceOnUse" gradientTransform="translate(256 198) rotate(90) scale(228)">
      <stop stop-color="#17344C"/>
      <stop offset="1" stop-color="#17344C" stop-opacity="0"/>
    </radialGradient>
    <linearGradient id="paint1_linear" x1="104" y1="96" x2="405" y2="412" gradientUnits="userSpaceOnUse">
      <stop stop-color="#84E3DA"/>
      <stop offset="1" stop-color="#4CA8FF"/>
    </linearGradient>
  </defs>
</svg>
